<?xml version="1.0" encoding="UTF-8"?>
<!DOCTYPE svg PUBLIC "-//W3C//DTD SVG 1.1//EN" "http://www.w3.org/Graphics/SVG/1.1/DTD/svg11.dtd">
<svg xmlns="http://www.w3.org/2000/svg" version="1.1" width="512px" height="512px" style="shape-rendering:geometricPrecision; text-rendering:geometricPrecision; image-rendering:optimizeQuality; fill-rule:evenodd; clip-rule:evenodd" xmlns:xlink="http://www.w3.org/1999/xlink">
<g><path style="opacity:0.995" fill="#febd06" d="M 123.5,61.5 C 143.575,62.3583 161.741,68.6916 178,80.5C 218.666,60.9323 260.833,57.099 304.5,69C 313.955,72.2068 323.289,75.7068 332.5,79.5C 394.898,43.8853 415.564,60.552 394.5,129.5C 397.464,135.414 400.964,141.08 405,146.5C 438.221,207.525 437.555,268.192 403,328.5C 399.054,334.779 394.721,340.779 390,346.5C 376.725,380.83 363.558,415.163 350.5,449.5C 335.5,449.5 320.5,449.5 305.5,449.5C 302.319,435.441 298.819,421.441 295,407.5C 294.612,406.572 293.945,405.905 293,405.5C 268.165,410.822 243.332,410.822 218.5,405.5C 217.833,405.833 217.167,406.167 216.5,406.5C 212.36,420.725 208.694,435.058 205.5,449.5C 190.5,449.5 175.5,449.5 160.5,449.5C 147.834,415.007 134.667,380.673 121,346.5C 79.3476,291.263 71.0142,231.263 96,166.5C 101.651,153.881 108.485,142.048 116.5,131C 110.17,113.692 107.67,95.8591 109,77.5C 110.269,68.7391 115.102,63.4057 123.5,61.5 Z"/></g>
<g><path style="opacity:1" fill="#353432" d="M 189.5,138.5 C 194.8,138.616 198.3,141.283 200,146.5C 201.465,153.574 200.299,160.074 196.5,166C 189.852,168.759 185.686,166.592 184,159.5C 183.333,154.833 183.333,150.167 184,145.5C 185.371,142.734 187.204,140.401 189.5,138.5 Z"/></g>
<g><path style="opacity:1" fill="#353432" d="M 320.5,138.5 C 325.8,138.616 329.3,141.283 331,146.5C 332.379,153.502 331.212,160.002 327.5,166C 320.852,168.759 316.686,166.592 315,159.5C 314.333,154.833 314.333,150.167 315,145.5C 316.371,142.734 318.204,140.401 320.5,138.5 Z"/></g>
<g><path style="opacity:1" fill="#ffdb78" d="M 245.5,154.5 C 277.12,152.198 296.954,166.198 305,196.5C 306.803,228.081 292.303,247.247 261.5,254C 230.707,255.187 212.207,240.687 206,210.5C 204.656,181.5 217.823,162.833 245.5,154.5 Z"/></g>
<g><path style="opacity:1" fill="#ffbe09" d="M 234.5,183.5 C 238.909,182.618 242.409,183.952 245,187.5C 245.667,198.5 245.667,209.5 245,220.5C 240.333,227.167 235.667,227.167 231,220.5C 230.333,209.5 230.333,198.5 231,187.5C 232.376,186.295 233.542,184.962 234.5,183.5 Z"/></g>
<g><path style="opacity:1" fill="#ffbf0f" d="M 271.5,183.5 C 276.772,182.549 280.272,184.549 282,189.5C 282.667,199.5 282.667,209.5 282,219.5C 277.33,226.977 272.33,227.311 267,220.5C 266.333,209.833 266.333,199.167 267,188.5C 268.025,186.313 269.525,184.646 271.5,183.5 Z"/></g>
<g><path style="opacity:1" fill="#353432" d="M 290.5,264.5 C 300.148,263.48 303.315,267.48 300,276.5C 273.343,296.379 245.843,297.545 217.5,280C 210.326,273.555 211.159,268.722 220,265.5C 227.165,268.496 234.332,271.662 241.5,275C 259.818,280.273 276.151,276.773 290.5,264.5 Z"/></g>
<g><path style="opacity:1" fill="#fffefc" d="M 129.5,299.5 C 132.32,299.248 134.986,299.748 137.5,301C 155.334,331.494 181,352.494 214.5,364C 217.886,367.373 218.386,371.206 216,375.5C 214.352,377.028 212.352,377.695 210,377.5C 174.888,366.732 147.554,345.732 128,314.5C 124.249,308.947 124.749,303.947 129.5,299.5 Z"/></g>
<g><path style="opacity:1" fill="#fffdf8" d="M 246.5,370.5 C 251.297,370.121 255.964,370.621 260.5,372C 264.88,377.484 263.88,381.817 257.5,385C 249.992,387.471 244.992,385.138 242.5,378C 242.927,374.977 244.261,372.477 246.5,370.5 Z"/></g>
</svg>
